<svg width="600" height="400" viewBox="0 0 600 400" fill="none" xmlns="http://www.w3.org/2000/svg">
  <defs>
    <linearGradient id="bg" x1="0%" y1="0%" x2="100%" y2="100%">
      <stop offset="0%" style="stop-color:#F8FAFC;stop-opacity:1" />
      <stop offset="100%" style="stop-color:#E2E8F0;stop-opacity:1" />
    </linearGradient>
    <linearGradient id="card" x1="0%" y1="0%" x2="100%" y2="100%">
      <stop offset="0%" style="stop-color:#FFFFFF;stop-opacity:1" />
      <stop offset="100%" style="stop-color:#F1F5F9;stop-opacity:1" />
    </linearGradient>
  </defs>
  
  <!-- Background -->
  <rect width="600" height="400" fill="url(#bg)" rx="12"/>
  
  <!-- Header -->
  <rect x="20" y="20" width="560" height="60" fill="url(#card)" rx="8"/>
  <rect x="40" y="40" width="40" height="20" fill="#3B82F6" rx="4"/>
  <rect x="100" y="40" width="120" height="20" fill="#E2E8F0" rx="4"/>
  <rect x="500" y="40" width="60" height="20" fill="#E2E8F0" rx="4"/>
  
  <!-- Stats Cards -->
  <rect x="20" y="100" width="130" height="80" fill="url(#card)" rx="8"/>
  <rect x="30" y="110" width="30" height="30" fill="#10B981" rx="6"/>
  <rect x="70" y="110" width="60" height="15" fill="#E2E8F0" rx="3"/>
  <rect x="70" y="130" width="40" height="10" fill="#E2E8F0" rx="2"/>
  
  <rect x="170" y="100" width="130" height="80" fill="url(#card)" rx="8"/>
  <rect x="180" y="110" width="30" height="30" fill="#3B82F6" rx="6"/>
  <rect x="220" y="110" width="60" height="15" fill="#E2E8F0" rx="3"/>
  <rect x="220" y="130" width="40" height="10" fill="#E2E8F0" rx="2"/>
  
  <rect x="320" y="100" width="130" height="80" fill="url(#card)" rx="8"/>
  <rect x="330" y="110" width="30" height="30" fill="#8B5CF6" rx="6"/>
  <rect x="370" y="110" width="60" height="15" fill="#E2E8F0" rx="3"/>
  <rect x="370" y="130" width="40" height="10" fill="#E2E8F0" rx="2"/>
  
  <rect x="470" y="100" width="110" height="80" fill="url(#card)" rx="8"/>
  <rect x="480" y="110" width="30" height="30" fill="#F59E0B" rx="6"/>
  <rect x="520" y="110" width="50" height="15" fill="#E2E8F0" rx="3"/>
  <rect x="520" y="130" width="30" height="10" fill="#E2E8F0" rx="2"/>
  
  <!-- Chart Area -->
  <rect x="20" y="200" width="360" height="180" fill="url(#card)" rx="8"/>
  <rect x="30" y="210" width="80" height="20" fill="#E2E8F0" rx="4"/>
  
  <!-- Chart bars -->
  <rect x="50" y="320" width="20" height="40" fill="#3B82F6" rx="2"/>
  <rect x="90" y="300" width="20" height="60" fill="#10B981" rx="2"/>
  <rect x="130" y="280" width="20" height="80" fill="#8B5CF6" rx="2"/>
  <rect x="170" y="260" width="20" height="100" fill="#F59E0B" rx="2"/>
  <rect x="210" y="240" width="20" height="120" fill="#EF4444" rx="2"/>
  <rect x="250" y="290" width="20" height="70" fill="#06B6D4" rx="2"/>
  <rect x="290" y="270" width="20" height="90" fill="#84CC16" rx="2"/>
  <rect x="330" y="250" width="20" height="110" fill="#F97316" rx="2"/>
  
  <!-- Activity Feed -->
  <rect x="400" y="200" width="180" height="180" fill="url(#card)" rx="8"/>
  <rect x="410" y="210" width="60" height="15" fill="#E2E8F0" rx="3"/>
  
  <!-- Activity items -->
  <circle cx="420" cy="240" r="4" fill="#10B981"/>
  <rect x="430" y="235" width="80" height="8" fill="#E2E8F0" rx="2"/>
  <rect x="430" y="245" width="60" height="6" fill="#E2E8F0" rx="1"/>
  
  <circle cx="420" cy="270" r="4" fill="#3B82F6"/>
  <rect x="430" y="265" width="90" height="8" fill="#E2E8F0" rx="2"/>
  <rect x="430" y="275" width="70" height="6" fill="#E2E8F0" rx="1"/>
  
  <circle cx="420" cy="300" r="4" fill="#8B5CF6"/>
  <rect x="430" y="295" width="85" height="8" fill="#E2E8F0" rx="2"/>
  <rect x="430" y="305" width="65" height="6" fill="#E2E8F0" rx="1"/>
  
  <circle cx="420" cy="330" r="4" fill="#F59E0B"/>
  <rect x="430" y="325" width="75" height="8" fill="#E2E8F0" rx="2"/>
  <rect x="430" y="335" width="55" height="6" fill="#E2E8F0" rx="1"/>
  
  <circle cx="420" cy="360" r="4" fill="#EF4444"/>
  <rect x="430" y="355" width="80" height="8" fill="#E2E8F0" rx="2"/>
  <rect x="430" y="365" width="60" height="6" fill="#E2E8F0" rx="1"/>
</svg>
