<svg width="400" height="300" viewBox="0 0 400 300" fill="none" xmlns="http://www.w3.org/2000/svg">
  <defs>
    <linearGradient id="bg" x1="0%" y1="0%" x2="100%" y2="100%">
      <stop offset="0%" style="stop-color:#F0F9FF;stop-opacity:1" />
      <stop offset="100%" style="stop-color:#E0F2FE;stop-opacity:1" />
    </linearGradient>
    <linearGradient id="icon" x1="0%" y1="0%" x2="100%" y2="100%">
      <stop offset="0%" style="stop-color:#3B82F6;stop-opacity:1" />
      <stop offset="100%" style="stop-color:#1D4ED8;stop-opacity:1" />
    </linearGradient>
  </defs>
  
  <!-- Background -->
  <rect width="400" height="300" fill="url(#bg)" rx="16"/>
  
  <!-- Shield Icon -->
  <g transform="translate(150, 80)">
    <circle cx="50" cy="50" r="50" fill="url(#icon)" opacity="0.1"/>
    <path d="M50 20L70 30V50C70 65 50 80 50 80S30 65 30 50V30L50 20Z" fill="url(#icon)"/>
    <path d="M45 50L48 53L55 46" stroke="white" stroke-width="3" stroke-linecap="round" stroke-linejoin="round"/>
  </g>
  
  <!-- Security elements -->
  <rect x="50" y="200" width="300" height="60" fill="white" rx="8" opacity="0.8"/>
  <rect x="70" y="210" width="80" height="15" fill="#3B82F6" rx="4"/>
  <rect x="70" y="230" width="200" height="8" fill="#E2E8F0" rx="2"/>
  <rect x="70" y="245" width="150" height="8" fill="#E2E8F0" rx="2"/>
  
  <!-- Lock icons -->
  <g transform="translate(300, 210)">
    <rect x="0" y="0" width="20" height="15" fill="#10B981" rx="2"/>
    <rect x="5" y="15" width="10" height="10" fill="#10B981" rx="1"/>
  </g>
  
  <g transform="translate(330, 210)">
    <rect x="0" y="0" width="20" height="15" fill="#10B981" rx="2"/>
    <rect x="5" y="15" width="10" height="10" fill="#10B981" rx="1"/>
  </g>
</svg>
